<svg width="196" height="362" viewBox="0 0 196 362" fill="none" xmlns="http://www.w3.org/2000/svg">
<path d="M44.4833 108C55.5814 103.46 74.0928 96.0129 86.049 94.6678C96.1622 93.5301 109.517 93.8992 118.903 89.8766C124.746 87.3725 130.625 87.0775 136.948 86.2053C144.339 85.1859 153.749 85.3527 160.656 88.1965C165.571 90.2205 166.809 92.8529 169.678 97.1568C172.936 102.044 173.954 111.019 174.345 116.695C174.813 123.472 176.647 130.19 176.647 136.98C176.647 175.535 164.102 212.819 154.496 248.362C150.034 264.868 143.046 281.317 143.046 299.012C143.046 310.337 143.046 321.662 143.046 332.986C143.046 337.539 145.469 351.412 142.984 355.138C140.881 358.293 141.926 347.605 141.926 343.813C141.926 338.67 141.926 333.526 141.926 328.382C141.926 319.112 141.783 310.083 140.869 300.941C139.696 289.218 137.383 277.416 135.268 265.784C134.186 259.831 131.082 254.59 130.726 248.362C130.45 243.538 129.606 238.821 129.606 233.801C129.606 224.116 128.372 233.981 127.117 238.53C124.873 246.663 122.482 255.292 120.895 263.544C118.189 277.612 117.686 291.397 115.606 305.546C113.124 322.422 115.045 340.964 115.045 358.001C115.045 366.202 113.925 341.623 113.925 333.422C113.925 323.163 115.302 311.786 113.677 301.625C110.81 283.71 104.957 266.266 96.876 250.104C88.8816 234.115 77.6924 222.51 65.8262 209.16C53.0735 194.814 48.7679 173.675 46.7233 155.274C45.0109 139.862 44.4833 125.018 44.4833 109.477" stroke="#1D3515" stroke-width="3" stroke-linecap="round"/>
<path d="M44.4832 107.237C40.2587 111.337 35.8146 114.037 32.6607 118.624C28.8781 124.126 24.9386 129.282 20.9625 134.678C17.5261 139.342 13.7273 144.589 9.69993 148.616C7.96742 150.349 1.07769 154.964 1.98414 158.136C2.61014 160.328 10.3747 164.18 12.2511 165.479C17.523 169.129 23.2523 170.001 28.8028 172.697C34.0259 175.234 45.1897 180.16 47.8433 172.199" stroke="#1D3515" stroke-width="3" stroke-linecap="round"/>
<path d="M48.9634 169.959L54.5636 167.719" stroke="#1D3515" stroke-width="3" stroke-linecap="round"/>
<path d="M55.6836 168.839C53.2186 172.228 53.0476 174.439 48.9634 174.439" stroke="#1D3515" stroke-width="3" stroke-linecap="round"/>
<path d="M179 132C180.218 138.545 177.673 150.574 180.369 156.641C183.233 163.085 184.634 170.183 186.84 176.801" stroke="#1D3515" stroke-width="3" stroke-linecap="round"/>
<path d="M187.133 178C189.308 178.424 192.844 178.221 193.853 180.24" stroke="#1D3515" stroke-width="3" stroke-linecap="round"/>
<path d="M187.133 178C187.133 180.711 186.43 184.016 188.253 185.84" stroke="#1D3515" stroke-width="3" stroke-linecap="round"/>
<path d="M121.5 55.5C121.5 64.1796 118.846 71.9804 114.626 77.578C110.407 83.1749 104.691 86.5 98.5 86.5C92.3092 86.5 86.5928 83.1749 82.3737 77.578C78.154 71.9804 75.5 64.1796 75.5 55.5C75.5 51.0738 76.0022 48.4028 76.847 46.7283C77.6308 45.1748 78.768 44.3644 80.5057 43.8271C82.0543 43.3481 83.9356 43.1247 86.3468 42.8384C86.84 42.7798 87.3554 42.7186 87.8947 42.6521C90.9457 42.2755 94.5654 41.7404 98.7211 40.4999C99.6297 40.4989 100.517 40.4921 101.384 40.4854C103.719 40.4675 105.906 40.4507 107.963 40.5522C110.834 40.6938 113.264 41.0623 115.238 41.8998C117.163 42.7165 118.678 43.9887 119.743 46.0406C120.832 48.1373 121.5 51.1464 121.5 55.5Z" stroke="black" stroke-width="3"/>
<path d="M72.4999 36.5251C71.1849 25.6984 69.4835 8.69298 82.2567 4.52782C89.5963 2.13447 97.6414 -0.0560122 103.936 5.39897C107.49 8.4795 110.188 11.7837 112.597 15.8277C113.879 17.9798 116 23.5251 116 25.5251" stroke="black" stroke-width="3" stroke-linecap="round"/>
<path d="M116.423 25.6673C124.085 22.6773 131.553 22.2566 139.073 20.316C145.349 18.6962 154.098 20.0671 160.54 20.0671C165.298 20.0671 161.678 20.3639 160.14 21.1328C149.831 26.2873 136.685 30.5251 125.383 33.5075C113.452 36.6561 100.12 37.7963 88 40C79.778 41.4949 72.1406 45.6328 64.4038 49.2502C56.1406 55.6328 44.5939 63.6738 44.1404 61.6328C41.9062 51.5788 66.9972 39.7399 72.7418 36.8676" stroke="black" stroke-width="3" stroke-linecap="round"/>
</svg>