<svg width="196" height="375" viewBox="0 0 196 375" fill="none" xmlns="http://www.w3.org/2000/svg">
    <path
        d="M44.4833 121C55.5814 116.46 74.0928 109.013 86.049 107.668C96.1622 106.53 109.517 106.899 118.903 102.877C124.746 100.373 130.625 100.077 136.948 99.2053C144.339 98.1859 153.749 98.3527 160.656 101.197C165.571 103.221 166.809 105.853 169.678 110.157C172.936 115.044 173.954 124.019 174.345 129.695C174.813 136.472 176.647 143.19 176.647 149.98C176.647 188.535 164.102 225.819 154.496 261.362C150.034 277.868 143.046 294.317 143.046 312.012C143.046 323.337 143.046 334.662 143.046 345.986C143.046 350.539 145.469 364.412 142.984 368.138C140.881 371.293 141.926 360.605 141.926 356.813C141.926 351.67 141.926 346.526 141.926 341.382C141.926 332.112 141.783 323.083 140.869 313.941C139.696 302.218 137.383 290.416 135.268 278.784C134.186 272.831 131.082 267.59 130.726 261.362C130.45 256.538 129.606 251.821 129.606 246.801C129.606 237.116 128.372 246.981 127.117 251.53C124.873 259.663 122.482 268.292 120.895 276.544C118.189 290.612 117.686 304.397 115.606 318.546C113.124 335.422 115.045 353.964 115.045 371.001C115.045 379.202 113.925 354.623 113.925 346.422C113.925 336.163 115.302 324.786 113.677 314.625C110.81 296.71 104.957 279.266 96.876 263.104C88.8816 247.115 77.6924 235.51 65.8262 222.16C53.0735 207.814 48.7679 186.675 46.7233 168.274C45.0109 152.862 44.4833 138.018 44.4833 122.477"
        stroke="#1D3515" stroke-width="3" stroke-linecap="round" />
    <path
        d="M44.4832 120.237C40.2587 124.337 35.8146 127.037 32.6607 131.624C28.8781 137.126 24.9386 142.282 20.9625 147.678C17.5261 152.342 13.7273 157.589 9.69993 161.616C7.96742 163.349 1.07769 167.964 1.98414 171.136C2.61014 173.328 10.3747 177.18 12.2511 178.479C17.523 182.129 23.2523 183.001 28.8028 185.697C34.0259 188.234 45.1897 193.16 47.8433 185.199"
        stroke="#1D3515" stroke-width="3" stroke-linecap="round" />
    <path d="M48.9634 182.959L54.5636 180.719" stroke="#1D3515" stroke-width="3" stroke-linecap="round" />
    <path d="M55.6836 181.839C53.2186 185.228 53.0476 187.439 48.9634 187.439" stroke="#1D3515" stroke-width="3"
        stroke-linecap="round" />
    <path d="M179 145C180.218 151.545 177.673 163.574 180.369 169.641C183.233 176.085 184.634 183.183 186.84 189.801"
        stroke="#1D3515" stroke-width="3" stroke-linecap="round" />
    <path d="M187.133 191C189.308 191.424 192.844 191.221 193.853 193.24" stroke="#1D3515" stroke-width="3"
        stroke-linecap="round" />
    <path d="M187.133 191C187.133 193.711 186.43 197.016 188.253 198.84" stroke="#1D3515" stroke-width="3"
        stroke-linecap="round" />
    <path
        d="M45.4999 35.9998C44.1849 25.173 42.4835 8.16759 55.2567 4.00243C62.5963 1.60908 70.6414 -0.581403 76.9356 4.87358C80.49 7.95411 83.188 11.2583 85.5972 15.3023C86.8793 17.4544 89 22.9998 89 24.9998"
        stroke="black" stroke-width="2" stroke-linecap="round" />
    <path
        d="M89.2825 25.0345C96.9444 22.0445 104.412 21.6238 111.932 19.6832C118.209 18.0634 126.958 19.4343 133.399 19.4343C138.157 19.4343 134.537 19.731 132.999 20.5C122.69 25.6544 109.545 29.8922 98.2428 32.8747C86.3113 36.0233 74.0241 40.6891 61.9039 42.8928C53.6819 44.3877 45 45 37.2631 48.6174C29 55 17.4533 63.041 16.9998 61C14.7655 50.946 39.8566 39.1071 45.6012 36.2348"
        stroke="black" stroke-width="2" stroke-linecap="round" />
</svg>