<svg width="205" height="332" viewBox="0 0 205 332" fill="none" xmlns="http://www.w3.org/2000/svg">
<path d="M50.5 73.4999C40.5 75.4999 26.5 77.4999 11.492 86.9118C3.85709 91.6999 7.20386 100.599 5.55375 107.415C3.08828 117.599 2.68249 126.786 2.68249 137.226C2.68249 146.865 4.64289 155.512 2.94351 165.34C1.31281 174.769 1.91064 181.62 3.85709 191" stroke="#1D3515" stroke-width="3" stroke-linecap="round"/>
<path d="M24.0604 111.877C24.0604 122.347 23.3317 132.624 25.7405 142.74C27.2716 149.171 28.5405 155.097 28.5405 161.719C28.5405 176.625 30.4809 192.623 27.9183 207.267C23.6156 231.854 20.0598 257.807 19.5803 282.745C19.3026 297.183 17.3402 311.377 17.3402 325.804C17.3402 334.222 15.5803 328.29 15.1623 323.066C14.6351 316.475 14.9345 310.238 16.7802 303.963C18.9897 296.451 20.6079 288.707 22.9404 281.127C24.8724 274.848 26.1149 267.697 29.6606 262.024C33.3864 256.063 36.5068 249.21 39.7409 242.921C43.2062 236.183 48.9717 235.737 55.9192 233.463C71.3337 228.418 85.5307 231.516 93.0048 246.904C95.4887 252.017 98.2271 257.452 99.1027 263.144C100.076 269.467 103.967 275.166 104.641 281.562C105.798 292.558 109.183 303.991 109.183 315.226C109.183 319.714 112.37 323.466 112.543 327.795C112.79 333.955 110.303 321.61 110.303 319.581C110.303 304.29 115.903 289.294 115.903 274.033C115.903 256.756 115.903 239.478 115.903 222.201C115.903 213.821 115.903 205.441 115.903 197.062C115.903 190.677 114.216 180.5 111.921 174.599C107.673 163.676 107.903 150.837 104.454 139.629C101.818 131.064 96.4999 98.9791 96.4999 89.9999" stroke="#1D3515" stroke-width="3" stroke-linecap="round"/>
<path d="M63.0009 71.4999C72.6525 69.6166 95.9075 64.6124 105.761 67.0757C113.81 69.0879 120.765 82.1058 122.623 89.5386C125.254 100.061 127.257 110.735 130.215 121.086C133.229 131.636 137.117 141.918 140.544 152.198" stroke="#1D3515" stroke-width="3" stroke-linecap="round"/>
<path d="M149.504 185.799C145.43 179.118 145.024 176.392 145.024 168.999C145.024 163.7 149.9 164.279 153.984 164.519C158.85 164.805 167.425 176.03 167.425 180.199" stroke="#782A2A" stroke-width="3" stroke-linecap="round"/>
<path d="M153.487 186.982C148.899 187.816 144.031 193.156 140.544 195.88C140.544 201.546 146.144 206.056 146.144 211.56C146.144 216.988 148.074 227.321 155.353 220.769C157.351 218.971 160.648 217.932 162.945 216.912C165.69 215.691 169.139 212.921 172.154 212.68C177.586 212.246 183.035 208.62 188.208 207.142C190.44 206.505 197.048 205.057 198.101 203.16C199.024 201.499 194.725 195.539 193.683 194.2C189.93 189.374 186.267 184.073 181.425 180.199C177.53 177.083 167.297 180.609 163.443 183.062C160.479 184.947 156.821 186.375 153.487 186.982Z" stroke="#782A2A" stroke-width="3" stroke-linecap="round"/>
<path d="M143.904 203.72C151.691 198.056 162.336 196.744 170.785 192.271C175.481 189.784 180.685 188.13 185.345 185.799" stroke="#782A2A" stroke-width="3" stroke-linecap="round"/>
<path d="M178.625 179.079C188.129 180.934 191.385 185.927 198.226 191.4C202.999 195.218 206.021 204.84 196.546 204.84" stroke="#782A2A" stroke-width="3" stroke-linecap="round"/>
<path d="M171.905 189.16V198.12" stroke="#782A2A" stroke-width="3" stroke-linecap="round"/>
<path d="M151.744 195.88C153.487 198.276 154.742 201.299 157.345 202.6" stroke="#782A2A" stroke-width="3" stroke-linecap="round"/>
<path d="M22.1517 112.479C22.1517 122.625 21.2905 132.484 19.4042 142.454C17.8076 150.894 17.0887 160.329 13.9642 168.363C12.2025 172.893 9.4855 177.303 7.91978 181.826C7.24902 183.763 6.60856 185.614 5.9416 187.54C5.61509 188.484 4.39755 192.794 3.85352 190.618" stroke="#1D3515" stroke-width="3" stroke-linecap="round"/>
<path d="M97.5 90.5C97.5 92.7164 106.034 103.092 108.5 116.5C110.964 120.128 115.719 130.087 118.5 133.5C122.865 138.857 122.34 139.475 127.215 144.35C129.684 146.819 132.319 148.743 135.402 150.285C136.549 150.858 140.307 152.27 139.853 152.043" stroke="#1D3515" stroke-width="3" stroke-linecap="round"/>
<path d="M51.2194 72.1801C53.8223 72.1801 56.235 70.8877 58.7186 70.2491C59.1229 70.1451 59.587 70.2437 59.9685 70.097C60.1596 70.0234 60.6627 69.9588 60.8612 70.0639C61.053 70.1655 61.048 70.7307 61.1588 70.9302C61.3308 71.2399 61.4499 71.588 61.6416 71.8891C61.9937 72.4425 62.5277 72.785 62.5277 73.43C62.5277 74.3521 62.0855 75.7563 61.6945 76.5844C61.1662 77.7031 60.8861 79.092 60.6496 80.3009C60.5943 80.5834 60.2195 83.4326 59.9751 83.3628C59.8406 83.3244 59.3854 82.8816 59.2212 82.7742C58.8956 82.5613 58.4818 82.3453 58.1829 82.1129C57.4922 81.5757 56.6365 81.3053 55.9213 80.8101C55.2847 80.3695 54.5347 80.155 53.8911 79.7454C53.3838 79.4226 52.7456 79.0955 52.2246 78.8196C51.1553 78.2535 51.2322 75.9262 51.107 74.9245C51.0388 74.3794 50.9813 73.7254 50.9813 73.1919C50.9813 72.9367 50.849 72.7635 50.8623 72.5372C50.8786 72.26 51.3226 72.5372 51.4574 72.5372" stroke="#782A2A" stroke-linecap="round"/>
<path d="M51.5 78C51.5 80.0389 52.1218 83.8523 52.415 85.8722C52.7945 88.4863 53.3 91.0829 53.6088 93.7078C54.0231 97.2291 54.8551 100.672 55.2089 104.21C55.5275 107.396 55.6051 110.657 56.0725 113.811C56.8101 118.79 57.2095 123.827 58.0663 128.797C58.3394 130.38 58.4092 132.198 58.4092 133.8C58.4092 134.461 58.0103 137.271 58.6378 137.585" stroke="#782A2A" stroke-linecap="round"/>
<path d="M58.6367 137.585C58.6367 138.878 61.4902 140.198 62.4085 140.912C63.1381 141.48 63.7711 142.215 64.5801 142.665C64.7792 142.775 65.9194 144.534 65.9517 143.985C66.037 142.534 67 141.5 68 140C69 138.5 69.1263 137.905 69.4314 137.356C69.7926 136.706 70.5744 135.616 71.2093 135.299" stroke="#782A2A" stroke-linecap="round"/>
<path d="M71.2111 135.299C71.2111 131.648 70.9405 127.888 70.4745 124.276C70.0235 120.781 69.9899 117.217 69.3315 113.76C68.692 110.403 68.9603 106.901 68.1885 103.525C67.9359 102.419 67.7675 101.33 67.5663 100.223C67.495 98.9405 66.9845 92.2432 66.6392 91C66.0068 88.7232 65.9032 87.8417 65.6105 85.5C65.8331 85.5 65.3692 82.4856 64.7978 79.5C64.1278 76 62.5 73.7637 62.5 73" stroke="#782A2A" stroke-linecap="round"/>
<path d="M69.5 31.5C69.5 39.9219 67.0594 47.4839 63.1893 52.902C59.3171 58.323 54.103 61.5 48.5 61.5C42.897 61.5 37.6829 58.323 33.8107 52.902C29.9406 47.4839 27.5 39.9219 27.5 31.5C27.5 23.0781 29.9406 15.5161 33.8107 10.098C37.6829 4.67697 42.897 1.5 48.5 1.5C54.103 1.5 59.3171 4.67697 63.1893 10.098C67.0594 15.5161 69.5 23.0781 69.5 31.5Z" stroke="black" stroke-width="3"/>
</svg>
